<?xml version="1.0" encoding="UTF-8" standalone="no"?>
<!-- Created with Inkscape (http://www.inkscape.org/) -->

<svg
   width="500"
   height="437.5"
   viewBox="0 0 132.29165 115.75519"
   version="1.1"
   id="svg1"
   xml:space="preserve"
   sodipodi:docname="cecom-wishlist-for-woocommerce.svg"
   inkscape:version="1.4.3 (0d15f75, 2025-12-25)"
   xmlns:inkscape="http://www.inkscape.org/namespaces/inkscape"
   xmlns:sodipodi="http://sodipodi.sourceforge.net/DTD/sodipodi-0.dtd"
   xmlns="http://www.w3.org/2000/svg"
   xmlns:svg="http://www.w3.org/2000/svg"><sodipodi:namedview
     id="namedview1"
     pagecolor="#505050"
     bordercolor="#eeeeee"
     borderopacity="1"
     inkscape:showpageshadow="0"
     inkscape:pageopacity="0"
     inkscape:pagecheckerboard="0"
     inkscape:deskcolor="#505050"
     inkscape:document-units="px"
     inkscape:zoom="0.62251517"
     inkscape:cx="-9.6383194"
     inkscape:cy="93.973614"
     inkscape:window-width="1920"
     inkscape:window-height="1176"
     inkscape:window-x="0"
     inkscape:window-y="39"
     inkscape:window-maximized="1"
     inkscape:current-layer="g1"><inkscape:page
       x="0"
       y="0"
       width="132.29166"
       height="115.75519"
       id="page2"
       margin="0"
       bleed="0" /></sodipodi:namedview><defs
     id="defs1" /><g
     inkscape:label="Layer 1"
     inkscape:groupmode="layer"
     id="layer1"
     transform="translate(8.5976737e-6,-0.01321664)"><g
       id="g1"
       transform="matrix(0.84381684,0,0,0.84381684,-25.03578,-59.755017)"><path
         d="m 103.46541,87.702795 4.59312,6.338478 4.59309,-6.338478 c 7.65515,-10.594739 19.96465,-16.871977 33.03967,-16.871977 22.50618,0 40.75607,18.249904 40.75607,40.756072 v 0.79614 c 0,34.35636 -42.83828,74.25508 -65.19136,91.31075 -3.79696,2.87833 -8.45127,4.3175 -13.19747,4.3175 -4.7462,0 -9.431167,-1.40853 -13.197499,-4.3175 C 72.507962,186.63811 29.669679,146.73939 29.669679,112.38303 v -0.79614 c 0,-22.506168 18.249906,-40.756072 40.756083,-40.756072 13.075008,0 25.384512,6.277238 33.039648,16.871977 z"
         id="path16"
         style="fill:#4246dd;fill-opacity:1;stroke-width:0.306206" /><g
         id="g2"
         transform="translate(6.77769,5.93048)"><path
           d="m 139.97241,144.52709 2.19727,3.03223 2.19726,-3.03223 c 3.66211,-5.06835 9.55078,-8.07128 15.80566,-8.07128 10.7666,0 19.49707,8.73046 19.49707,19.49706 v 0.38087 c 0,16.43555 -20.49316,35.52246 -31.18652,43.68163 -1.8164,1.37695 -4.04296,2.06543 -6.31347,2.06543 -2.2705,0 -4.51173,-0.67382 -6.31349,-2.06543 -10.69336,-8.15917 -31.18652,-27.24608 -31.18652,-43.68163 v -0.38087 c 0,-10.7666 8.73046,-19.49706 19.49708,-19.49706 6.25487,0 12.14355,3.00293 15.80566,8.07128 z"
           id="path1-3"
           style="fill:#12a5e5;fill-opacity:1;stroke-width:0.146484" /><rect
           style="opacity:1;fill:none;fill-opacity:1;stroke:#ffffff;stroke-width:4.60284;stroke-linecap:round;stroke-linejoin:round;stroke-dasharray:none;stroke-opacity:1;paint-order:fill markers stroke"
           id="rect4"
           width="3.397162"
           height="25.147161"
           x="140.47108"
           y="156.69472" /><rect
           style="fill:none;fill-opacity:1;stroke:#ffffff;stroke-width:4.60282;stroke-linecap:round;stroke-linejoin:round;stroke-dasharray:none;stroke-opacity:1;paint-order:fill markers stroke"
           id="rect4-4"
           width="3.3971846"
           height="25.146748"
           x="167.56972"
           y="-154.74304"
           transform="rotate(90)" /></g></g></g></svg>
